<svg width="32" height="32" viewBox="0 0 32 32" fill="none" xmlns="http://www.w3.org/2000/svg">
<path d="M15.9986 8.5002C15.7959 8.5002 15.6319 8.6642 15.6346 8.86686C15.6346 9.06953 15.7986 9.23353 16.0013 9.23353C16.2039 9.23353 16.3679 9.06953 16.3679 8.86686C16.3653 8.6642 16.2026 8.5002 15.9986 8.5002" stroke="#E74E13" stroke-width="2" stroke-linecap="round" stroke-linejoin="round"/>
<path d="M9.23201 15.999C9.23201 15.7963 9.06801 15.6323 8.86667 15.635C8.66401 15.635 8.50001 15.799 8.50001 16.0016C8.50001 16.2043 8.66401 16.3683 8.86667 16.3683C9.06934 16.3683 9.23201 16.203 9.23201 15.999" stroke="#E74E13" stroke-width="2" stroke-linecap="round" stroke-linejoin="round"/>
<path d="M21.3026 10.6963C21.16 10.5536 20.928 10.5536 20.7866 10.6976C20.644 10.8403 20.644 11.0723 20.7866 11.215C20.9293 11.3576 21.1613 11.3576 21.304 11.215C21.4466 11.071 21.4466 10.8403 21.3026 10.6963" stroke="#E74E13" stroke-width="2" stroke-linecap="round" stroke-linejoin="round"/>
<path d="M11.2134 20.7852C11.0707 20.6425 10.8387 20.6425 10.6974 20.7865C10.5547 20.9292 10.5547 21.1612 10.6974 21.3038C10.8401 21.4465 11.0721 21.4465 11.2147 21.3038C11.3574 21.1612 11.3574 20.9292 11.2134 20.7852" stroke="#E74E13" stroke-width="2" stroke-linecap="round" stroke-linejoin="round"/>
<path d="M11.2147 11.2131C11.3573 11.0705 11.3573 10.8385 11.2133 10.6971C11.0707 10.5545 10.8387 10.5545 10.696 10.6971C10.5533 10.8398 10.5533 11.0718 10.696 11.2145C10.8387 11.3571 11.0707 11.3571 11.2147 11.2131" stroke="#E74E13" stroke-width="2" stroke-linecap="round" stroke-linejoin="round"/>
<path fill-rule="evenodd" clip-rule="evenodd" d="M16 28.0004C9.26001 28.0004 3.81734 22.443 4.00534 15.6604C4.17867 9.39904 9.39867 4.17904 15.66 4.0057C22.4427 3.8177 28 9.26037 28 16.0004V17.3337C28 18.807 26.8067 20.0004 25.3333 20.0004H22.5827C20.8107 20.0004 19.532 21.6964 20.0187 23.399L20.3613 24.6004C20.8493 26.3044 19.5693 28.0004 17.7987 28.0004H16Z" stroke="#E74E13" stroke-width="2" stroke-linecap="round" stroke-linejoin="round"/>
</svg>
