<svg width="32" height="32" viewBox="0 0 32 32" fill="none" xmlns="http://www.w3.org/2000/svg">
<path fill-rule="evenodd" clip-rule="evenodd" d="M4.66675 18.6667L2.28157 23.437C2.09645 23.8072 2.00005 24.2155 2 24.6294V25.3312C1.9999 26.7968 3.18253 27.9878 4.64807 27.998L4.93341 28H27.0666L27.3427 27.999C28.8119 27.9939 30.0001 26.8014 30 25.3322V24.6294C30 24.2155 29.9036 23.8073 29.7185 23.437L27.3333 18.6667V6.66667C27.3333 5.19391 26.1394 4 24.6667 4H7.33333C5.86057 4 4.66667 5.19391 4.66667 6.66667L4.66675 18.6667Z" stroke="#E74E13" stroke-width="2" stroke-linecap="round" stroke-linejoin="round"/>
<path d="M4.16663 19.6667H27.8333" stroke="#E74E13" stroke-width="2" stroke-linecap="round" stroke-linejoin="round"/>
<path d="M10.6666 28L11.6961 24.9117C11.8776 24.3672 12.3871 24 12.961 24H19.0389C19.6129 24 20.1224 24.3672 20.3039 24.9117L21.3333 28" stroke="#E74E13" stroke-width="2" stroke-linecap="round" stroke-linejoin="round"/>
</svg>
