<svg width="32" height="32" viewBox="0 0 32 32" fill="none" xmlns="http://www.w3.org/2000/svg">
<path fill-rule="evenodd" clip-rule="evenodd" d="M25.7738 4.02269L26.0001 4.25244L26.2339 4.00522C26.6309 3.58176 27.1836 3.33894 27.764 3.33312C28.3444 3.32729 28.9019 3.55896 29.3073 3.97437L29.3548 4.02265C30.2152 4.90676 30.2152 6.31515 29.3548 7.19926L27.0158 9.57429C26.7479 9.84645 26.3819 9.99972 26.0001 9.99972C25.6182 9.99972 25.2522 9.84645 24.9843 9.57429L22.6454 7.19932C21.785 6.3152 21.785 4.9068 22.6454 4.02269V4.02269C23.058 3.60356 23.6215 3.36754 24.2096 3.36754C24.7977 3.36754 25.3612 3.60356 25.7738 4.02269Z" stroke="#E74E13" stroke-width="2" stroke-linecap="round" stroke-linejoin="round"/>
<path d="M18.5264 4.2829C13.2974 3.14686 7.94671 5.60203 5.39787 10.3069C2.84902 15.0119 3.71506 20.8349 7.5228 24.5944C11.3305 28.3539 17.1641 29.1457 21.8362 26.5371C26.5082 23.9285 28.895 18.547 27.6924 13.3329" stroke="#E74E13" stroke-width="2" stroke-linecap="round" stroke-linejoin="round"/>
<path d="M13.4666 13.6641V21.2646" stroke="#E74E13" stroke-width="2" stroke-linecap="round" stroke-linejoin="round"/>
<path fill-rule="evenodd" clip-rule="evenodd" d="M19.8693 21.333C20.8082 21.333 21.6206 20.6799 21.8225 19.763L22.6191 16.1441C22.7493 15.5523 22.6043 14.9334 22.2247 14.4612C21.8451 13.9889 21.2718 13.7142 20.6659 13.7142H18.5555V10.8703C18.5555 10.3652 18.27 9.90341 17.8181 9.67761L17.4808 9.50907C16.6676 9.10277 15.6788 9.4231 15.2583 10.2291L13.4666 13.6635H10.6666C10.1143 13.6635 9.66663 14.1113 9.66663 14.6635V20.333C9.66663 20.8853 10.1143 21.333 10.6666 21.333H19.8693Z" stroke="#E74E13" stroke-width="2" stroke-linecap="round" stroke-linejoin="round"/>
</svg>
