<svg width="32" height="32" viewBox="0 0 32 32" fill="none" xmlns="http://www.w3.org/2000/svg">
<path fill-rule="evenodd" clip-rule="evenodd" d="M25.3333 28H6.66667C5.2 28 4 26.8 4 25.3333V10.6667C4 9.19333 5.19333 8 6.66667 8H25.3333C26.8 8 28 9.2 28 10.6667V25.3333C28 26.8067 26.8067 28 25.3333 28Z" stroke="#E74E13" stroke-width="2" stroke-linecap="round" stroke-linejoin="round"/>
<path fill-rule="evenodd" clip-rule="evenodd" d="M14.676 14.3222L19.528 17.1916C20.1413 17.5542 20.1413 18.4422 19.528 18.8049L14.676 21.6742C14.0507 22.0436 13.26 21.5929 13.26 20.8676V15.1289C13.2613 14.4036 14.052 13.9529 14.676 14.3222V14.3222Z" stroke="#E74E13" stroke-width="2" stroke-linecap="round" stroke-linejoin="round"/>
<path d="M6.37598 8V6.66667C6.37598 5.19333 7.56931 4 9.04264 4H22.956C24.4293 4 25.6226 5.19333 25.6226 6.66667V8" stroke="#E74E13" stroke-width="2" stroke-linecap="round" stroke-linejoin="round"/>
</svg>
