<svg width="32" height="32" viewBox="0 0 32 32" fill="none" xmlns="http://www.w3.org/2000/svg">
<path d="M15.0395 14.7197H15.9999C18.1216 14.7197 19.8415 16.4397 19.8415 18.5613C19.8415 20.683 18.1216 22.4029 15.9999 22.4029H12.1583C10.5675 22.4083 9.13904 21.4294 8.57 19.9438C8.00096 18.4582 8.40988 16.7755 9.59724 15.7167" stroke="#E74E13" stroke-width="2" stroke-linecap="round" stroke-linejoin="round"/>
<path d="M16.9603 18.5612H15.9999C13.8783 18.5612 12.1583 16.8412 12.1583 14.7196C12.1583 12.5979 13.8783 10.878 15.9999 10.878H19.8415C21.4324 10.8726 22.8608 11.8515 23.4298 13.3371C23.9989 14.8227 23.5899 16.5054 22.4026 17.5642" stroke="#E74E13" stroke-width="2" stroke-linecap="round" stroke-linejoin="round"/>
<rect x="4.4751" y="5.08008" width="23.0496" height="23.0496" rx="5" stroke="#E74E13" stroke-width="2" stroke-linecap="round" stroke-linejoin="round"/>
</svg>
