<svg width="232" height="32" viewBox="0 0 232 32" fill="none" xmlns="http://www.w3.org/2000/svg">
<path fill-rule="evenodd" clip-rule="evenodd" d="M24.272 7.68241C22.0773 5.48641 19.1587 4.27575 16.0493 4.27441C9.63998 4.27441 4.42532 9.48641 4.42398 15.8931C4.42132 17.9317 4.95598 19.9357 5.97465 21.7024L4.32532 27.7237L10.488 26.1077C12.1933 27.0357 14.1027 27.5224 16.044 27.5224H16.0493C22.456 27.5224 27.6707 22.3091 27.6733 15.9024C27.6747 12.7984 26.4667 9.87975 24.272 7.68241Z" stroke="white" stroke-width="2" stroke-linecap="round" stroke-linejoin="round"/>
<path d="M17.46 18.0809L18.0013 17.5435C18.4986 17.0502 19.2853 16.9875 19.8586 17.3902C20.4133 17.7795 20.9146 18.1289 21.3813 18.4542C22.1226 18.9689 22.212 20.0249 21.5733 20.6622L21.0946 21.1409" stroke="white" stroke-width="2" stroke-linecap="round" stroke-linejoin="round"/>
<path d="M10.86 10.9055L11.3387 10.4269C11.976 9.78952 13.032 9.87885 13.5467 10.6189C13.8707 11.0855 14.22 11.5869 14.6107 12.1415C15.0133 12.7149 14.952 13.5015 14.4573 13.9989L13.92 14.5402" stroke="white" stroke-width="2" stroke-linecap="round" stroke-linejoin="round"/>
<path d="M21.0946 21.1408C19.1199 23.1061 15.8013 21.4368 13.1813 18.8154" stroke="white" stroke-width="2" stroke-linecap="round" stroke-linejoin="round"/>
<path d="M13.184 18.8186C10.564 16.1973 8.89463 12.8799 10.86 10.9053" stroke="white" stroke-width="2" stroke-linecap="round" stroke-linejoin="round"/>
<path d="M13.9199 14.54C14.3453 15.2107 14.8906 15.8747 15.5066 16.4907L15.5093 16.4934C16.1253 17.1094 16.7893 17.6547 17.4599 18.08" stroke="white" stroke-width="2" stroke-linecap="round" stroke-linejoin="round"/>
<path fill-rule="evenodd" clip-rule="evenodd" d="M50 4H62.0053C65.316 4 68 6.684 68 9.99467V22.0067C68 25.316 65.316 28 62.0053 28H49.9947C46.684 28 44 25.316 44 22.0053V10C44 6.68667 46.6867 4 50 4V4Z" stroke="white" stroke-width="2" stroke-linecap="round" stroke-linejoin="round"/>
<path d="M54.8 17.1999H62" stroke="white" stroke-width="2" stroke-linecap="round" stroke-linejoin="round"/>
<path d="M62 11.2002H60.74C58.7853 11.2002 57.2 12.7855 57.2 14.7402V16.0002V28.0002" stroke="white" stroke-width="2" stroke-linecap="round" stroke-linejoin="round"/>
<path fill-rule="evenodd" clip-rule="evenodd" d="M92.36 8.72656H99.64C101.645 8.72656 103.272 10.3519 103.272 12.3599V19.6399C103.272 21.6452 101.647 23.2719 99.6387 23.2719H92.36C90.3534 23.2719 88.7267 21.6466 88.7267 19.6386V12.3599C88.7267 10.3532 90.3534 8.72656 92.36 8.72656Z" stroke="white" stroke-width="2" stroke-linecap="round" stroke-linejoin="round"/>
<path d="M100 11.933C99.9626 11.933 99.9333 11.9637 99.9333 11.9997C99.9333 12.0357 99.9626 12.0663 100 12.0663C100.037 12.0663 100.067 12.037 100.067 11.9997C100.067 11.9637 100.036 11.933 100 11.933" stroke="white" stroke-width="2" stroke-linecap="round" stroke-linejoin="round"/>
<path d="M97.8853 14.115C98.9267 15.1563 98.9267 16.8443 97.8853 17.8856C96.844 18.927 95.156 18.927 94.1147 17.8856C93.0733 16.8443 93.0733 15.1563 94.1147 14.115C95.156 13.0737 96.844 13.0737 97.8853 14.115" stroke="white" stroke-width="2" stroke-linecap="round" stroke-linejoin="round"/>
<path fill-rule="evenodd" clip-rule="evenodd" d="M90 4H102.005C105.316 4 108 6.684 108 9.99467V22.0067C108 25.316 105.316 28 102.005 28H89.9947C86.684 28 84 25.316 84 22.0053V10C84 6.68667 86.6867 4 90 4V4Z" stroke="white" stroke-width="2" stroke-linecap="round" stroke-linejoin="round"/>
<path d="M139.248 10.9882H142.907" stroke="white" stroke-width="2" stroke-linecap="round" stroke-linejoin="round"/>
<path d="M137.909 17.498H137.91" stroke="white" stroke-width="1.5" stroke-linecap="round" stroke-linejoin="round"/>
<path fill-rule="evenodd" clip-rule="evenodd" d="M143.942 17.3243H137.91V16.9668C137.91 15.2172 139.328 13.7988 141.078 13.7988V13.7988C142.828 13.7988 144.246 15.2172 144.246 16.9668V17.0202C144.245 17.1878 144.11 17.3236 143.942 17.3243V17.3243Z" stroke="white" stroke-width="2" stroke-linecap="round" stroke-linejoin="round"/>
<path d="M137.909 17.3242V17.499C137.909 18.8301 138.709 20.0307 139.938 20.5424C141.167 21.0541 142.583 20.7765 143.527 19.8386" stroke="white" stroke-width="2" stroke-linecap="round" stroke-linejoin="round"/>
<path d="M128.162 15.3332V11.3315C128.162 11.1473 128.311 10.998 128.496 10.998H131.331" stroke="white" stroke-width="2" stroke-linecap="round" stroke-linejoin="round"/>
<path fill-rule="evenodd" clip-rule="evenodd" d="M132.168 15.333C133.675 15.333 134.898 16.5545 134.9 18.0621V18.0621C134.9 18.7863 134.612 19.4808 134.1 19.9929C133.588 20.5049 132.893 20.7926 132.169 20.7926H128.349C128.246 20.7926 128.162 20.6432 128.162 20.4591V15.333H132.168Z" stroke="white" stroke-width="2" stroke-linecap="round" stroke-linejoin="round"/>
<path fill-rule="evenodd" clip-rule="evenodd" d="M142.669 28.0051H129.331C126.384 28.0051 123.995 25.6163 123.995 22.6696V9.33067C123.995 6.38393 126.384 3.99512 129.331 3.99512H142.669C145.616 3.99512 148.005 6.38393 148.005 9.33067V22.6696C148.005 25.6163 145.616 28.0051 142.669 28.0051Z" stroke="white" stroke-width="2" stroke-linecap="round" stroke-linejoin="round"/>
<path d="M131.331 10.999C132.528 10.9998 133.498 11.9698 133.499 13.1666V13.1666C133.497 14.3629 132.528 15.3321 131.331 15.3328" stroke="white" stroke-width="2" stroke-linecap="round" stroke-linejoin="round"/>
<path fill-rule="evenodd" clip-rule="evenodd" d="M170 4H182.005C185.316 4 188 6.684 188 9.99467V22.0067C188 25.316 185.316 28 182.005 28H169.995C166.684 28 164 25.316 164 22.0053V10C164 6.68667 166.687 4 170 4V4Z" stroke="white" stroke-width="2" stroke-linecap="round" stroke-linejoin="round"/>
<path d="M170.827 14.7998V21.9998" stroke="white" stroke-width="2" stroke-linecap="round" stroke-linejoin="round"/>
<path d="M175.625 22.0008V17.8008C175.625 16.1434 176.968 14.8008 178.625 14.8008V14.8008C180.283 14.8008 181.625 16.1434 181.625 17.8008V22.0008" stroke="white" stroke-width="2" stroke-linecap="round" stroke-linejoin="round"/>
<path d="M170.824 10.4516C170.659 10.4516 170.524 10.5863 170.525 10.7516C170.525 10.917 170.66 11.0516 170.825 11.0516C170.991 11.0516 171.125 10.917 171.125 10.7516C171.125 10.585 170.991 10.4516 170.824 10.4516" stroke="white" stroke-width="2" stroke-linecap="round" stroke-linejoin="round"/>
<path fill-rule="evenodd" clip-rule="evenodd" d="M228.777 8.49749C228.472 7.15882 227.568 6.10282 226.419 5.74015C224.34 5.09082 216 5.09082 216 5.09082C216 5.09082 207.664 5.09082 205.581 5.74015C204.436 6.09749 203.532 7.15349 203.223 8.49749C202.667 10.9268 202.667 16.0002 202.667 16.0002C202.667 16.0002 202.667 21.0735 203.223 23.5028C203.528 24.8415 204.432 25.8975 205.581 26.2602C207.664 26.9095 216 26.9095 216 26.9095C216 26.9095 224.34 26.9095 226.419 26.2602C227.564 25.9028 228.468 24.8468 228.777 23.5028C229.333 21.0735 229.333 16.0002 229.333 16.0002C229.333 16.0002 229.333 10.9268 228.777 8.49749Z" stroke="white" stroke-width="2" stroke-linecap="round" stroke-linejoin="round"/>
<path fill-rule="evenodd" clip-rule="evenodd" d="M213.336 20L220.264 16L213.336 12V20Z" stroke="white" stroke-width="2" stroke-linecap="round" stroke-linejoin="round"/>
</svg>
